<svg version="1.2" xmlns="http://www.w3.org/2000/svg" viewBox="0 0 324 50" width="324" height="50"><style>.a{fill:#f16522}.b{fill:#dd5826}.c{fill:#353535}</style><path class="a" d="m11.1 26.8l-10.6 22.5h0.2l15.8-21.2z"/><path class="b" d="m41.8 16.6l-3.1-0.4-15.9 17.2-6.7-5.4-15.7 21.5 15.3-17 6.3 4.9 17.6-19.1 2.7 0.5z"/><path class="b" d="m30.5 14.4l-3.2-0.4 1 1.6 3 0.6z"/><path class="a" d="m40.8 6l-13.7 8 2.9 0.6-10.2 16.9 3.1 2.3 15.6-17.1 3.6 0.7z"/><path fill-rule="evenodd" class="c" d="m115.8 38.5v-16.9h-4.2v-8.6h4.2v-2.4l9.9-10.8v13.2h8.3v8.6h-8.3v15.3c0 2.3 1 3.4 3.2 3.4 1.9 0 3.5-0.4 4.9-1.2v8.1c-2.1 1.3-4.5 2.1-7.8 2.1-6.1 0-10.2-2.5-10.2-10.8zm20.3-25.5h9.9v7.2c2-5 5.3-8.2 11.2-7.9v10.6h-0.5c-6.6 0-10.7 4.1-10.7 12.6v3.3l-9.9 10.3zm45.1 15c-0.6-4.5-3.2-7.6-7.4-7.6-4.1 0-6.8 3-7.6 7.6zm-24.7 3v-0.1c0-10.2 7.1-18.6 17.3-18.6 11.8 0 17.1 9.3 17.1 19.4 0 0.8 0 1.7-0.1 2.6h-24.4c1 4.6 4.1 7 8.5 7 3.4 0 5.8-1 8.6-3.6l5.7 5.1c-3.3 4.1-8 6.7-14.4 6.7-10.5 0-18.3-7.6-18.3-18.5zm36.6-18h9.9v5c2.3-3 5.3-5.7 10.3-5.7 7.5 0 11.9 5.1 11.9 13.3v23.1h-9.9v-19.9c0-4.8-2.3-7.3-6.1-7.3-3.8 0-6.2 2.5-6.2 7.3v19.9h-9.9zm61 17.9v-0.1c0-6-3.9-9.9-8.5-9.9-4.7 0-8.6 3.9-8.6 9.9v0.1c0 5.9 3.9 9.8 8.6 9.8 4.6 0 8.5-3.9 8.5-9.8zm-27.1 0v-0.1c0-12 7.7-18.5 16-18.5 5.3 0 8.6 2.5 10.9 5.3v-7.1l10-10.5v48.7h-10v-5.2c-2.4 3.4-5.7 5.8-10.9 5.8-8.2 0-16-6.5-16-18.4zm63.6-2.9c-0.6-4.5-3.2-7.6-7.4-7.6-4.1 0-6.8 3-7.6 7.6zm-24.7 3v-0.1c0-10.2 7.1-18.6 17.3-18.6 11.7 0 17.1 9.3 17.1 19.4 0 0.8-0.1 1.7-0.2 2.6h-24.4c1 4.6 4.2 7 8.6 7 3.3 0 5.8-1 8.5-3.6l5.7 5.1c-3.3 4.1-8 6.7-14.3 6.7-10.6 0-18.3-7.6-18.3-18.5zm36.5-18h10v7.2c2-5 5.3-8.2 11.2-7.9v10.6h-0.5c-6.7 0-10.7 4.1-10.7 12.6v3.6l-10 9.6z"/><path fill-rule="evenodd" class="c" d="m45.6 43.9l4.2-6.6c3.8 2.8 7.8 4.2 11.1 4.2 2.9 0 4.2-1 4.2-2.6v-0.2c0-2.2-3.4-2.9-7.3-4.1-4.9-1.5-10.5-3.8-10.5-10.7v-0.1c0-7.3 5.8-11.4 12.9-11.4 4.4 0 9.2 1.6 13 4.2l-3.8 7c-3.4-2.1-6.9-3.4-9.4-3.4-2.5 0-3.7 1.1-3.7 2.5v0.1c0 2 3.3 3 7.1 4.3 4.9 1.6 10.6 4 10.6 10.6v0.1c0 7.9-5.8 11.5-13.4 11.5-4.9 0-10.4-1.6-15-5.4zm56.8-12.9v-0.1c0-5.3-3.8-9.9-9.3-9.9-5.7 0-9.1 4.5-9.1 9.7v0.2c0 5.2 3.8 9.8 9.3 9.8 5.7 0 9.1-4.4 9.1-9.7zm-28.2 0v-0.1c0-10.3 8.1-18.6 19.1-18.6 10.8 0 18.9 8.2 18.9 18.4v0.2c0 10.2-8.1 18.6-19.1 18.6-10.8 0-18.9-8.2-18.9-18.5z"/></svg>