<?xml version="1.0" encoding="utf-8"?>
<!-- Generator: Adobe Illustrator 27.9.0, SVG Export Plug-In . SVG Version: 6.00 Build 0)  -->
<svg version="1.1" id="Layer_1" xmlns="http://www.w3.org/2000/svg" xmlns:xlink="http://www.w3.org/1999/xlink" x="0px" y="0px"
	 viewBox="0 0 291.7 93.3" style="enable-background:new 0 0 291.7 93.3;" xml:space="preserve">
<style type="text/css">
	.st0{fill:none;}
	.st1{fill:#141780;}
	.st2{fill:#58D1E3;}
</style>
<g id="Layer_2_00000113320278615771461880000010877007784747311273_">
</g>
<g>
	<g>
		<path class="st0" d="M225.2,30.9c0-2.7-1.7-4.3-5.1-4.3h-4.6v8.5h4.6C223.5,35.2,225.2,33.6,225.2,30.9z"/>
		<path class="st0" d="M255.4,30.9c0-2.7-1.7-4.3-5.1-4.3h-4.6v8.5h4.6C253.7,35.2,255.4,33.6,255.4,30.9z"/>
		<path class="st0" d="M125.8,32c-2.4,0-4.1,1.5-4.6,3.9h9.2C130,33.5,128.2,32,125.8,32z"/>
		<polygon class="st1" points="55.2,42.7 40,42.7 54.6,25.3 54.6,20.2 29.6,20.2 29.6,26.7 43.9,26.7 29.2,44.1 29.2,49.2 
			55.2,49.2 		"/>
		<path class="st1" d="M66.3,38.1c0-3.5,1.7-5,4-5c2.1,0,3.4,1.4,3.4,4.6v11.6h7.9V38.1c0-3.5,1.7-5,3.9-5c2.1,0,3.4,1.4,3.4,4.6
			v11.6h7.9V36.4c0-7-3.9-10-9.1-10c-3.2,0-6,1.3-7.8,3.5c-1.6-2.4-4.2-3.5-7.3-3.5c-2.7,0-5,0.9-6.7,2.7v-2.4h-7.5v22.5h7.9V38.1z"
			/>
		<rect x="101.8" y="26.8" class="st1" width="7.9" height="22.5"/>
		<path class="st1" d="M105.7,24.3c2.9,0,4.8-1.8,4.8-4.3c0-2.4-1.9-4.1-4.8-4.1c-2.9,0-4.8,1.8-4.8,4.2
			C100.9,22.4,102.8,24.3,105.7,24.3z"/>
		<path class="st1" d="M126.6,49.6c4.3,0,7.4-1.2,9.6-3.6l-4.1-4.3c-1.5,1.3-3,1.9-5.2,1.9c-2.9,0-4.9-1.3-5.5-3.6h16.3
			c0-0.6,0.1-1.4,0.1-1.9c0-7.4-5.4-11.7-12-11.7c-7.1,0-12.4,4.8-12.4,11.6C113.4,44.7,118.5,49.6,126.6,49.6z M125.8,32
			c2.4,0,4.2,1.5,4.6,3.9h-9.2C121.6,33.5,123.3,32,125.8,32z"/>
		<path class="st1" d="M149.3,38.9c0-3.9,2.2-5.6,5.4-5.6c0.6,0,1.1,0,1.8,0.1v-7.1c-3.3,0-5.9,1-7.5,3.1v-2.7h-7.5v22.5h7.9V38.9z"
			/>
		<polygon class="st1" points="179.3,43.3 168.5,43.3 178.9,31.4 178.9,26.8 158.9,26.8 158.9,32.6 169,32.6 158.6,44.6 158.6,49.2 
			179.3,49.2 		"/>
		<path class="st1" d="M215.5,41.6h5.1c7.9,0,12.9-4.1,12.9-10.7c0-6.6-5-10.7-12.9-10.7h-13.3v29h8.2V41.6z M215.5,26.7h4.6
			c3.4,0,5.1,1.6,5.1,4.3c0,2.7-1.7,4.2-5.1,4.2h-4.6V26.7z"/>
		<path class="st1" d="M245.7,41.5h4.5l5.3,7.7h8.8l-6.3-9.1c3.6-1.7,5.7-4.9,5.7-9.2c0-6.6-5-10.7-12.9-10.7h-13.3v29h8.2V41.5z
			 M245.7,26.7h4.6c3.4,0,5.1,1.6,5.1,4.3c0,2.7-1.7,4.2-5.1,4.2h-4.6V26.7z"/>
	</g>
	<g>
		<rect x="201.7" y="63" class="st1" width="76" height="4.7"/>
		<rect x="15.7" y="63" class="st1" width="169.7" height="4.7"/>
		<path class="st2" d="M195.2,52.9h-3.3c-2,0-3.5,1.5-3.5,3.5V63v4.7v6.6c0,2,1.5,3.5,3.5,3.5h3.3c1.9,0,3.5-1.6,3.5-3.5v-6.6V63
			v-6.6C198.7,54.4,197.2,52.9,195.2,52.9z"/>
	</g>
</g>
</svg>
